<svg xmlns="http://www.w3.org/2000/svg" viewBox="0 0 36.83 38.1"><defs><style>.cls-1{fill:#010002;}</style></defs><g id="Layer_2" data-name="Layer 2"><g id="Layer_1-2" data-name="Layer 1"><path class="cls-1" d="M19.4,38.1q2.22-2.3,4.39-4.63H5.9a1,1,0,0,1-1-.7,1,1,0,0,1,.43-1.11l21.24-13.3,7.06,4.41,3.2-3.45-8.22-5.14v-1a1.84,1.84,0,0,1,1-1.55l.29-.18a5.79,5.79,0,0,0,3.28-5.08A6.56,6.56,0,0,0,28,.19,6.83,6.83,0,0,0,19.41,7c0,.15,0,.48,0,.8s.88.82,2,.82h.39c1.09,0,2-.37,2-.81s0-.74,0-.81c.06-1.47.45-2.34,1.95-2.64a2.89,2.89,0,0,1,2.53.65,1.48,1.48,0,0,1,.37,1.18,1.74,1.74,0,0,1-.75,1.3L26,8.81a3.31,3.31,0,0,0-1.71,3.07v2.3L2.53,27.88A5.49,5.49,0,0,0,.25,34.25c.26.9,1.43,3.85,5.7,3.85Z"/></g></g></svg>